<svg xmlns="http://www.w3.org/2000/svg" xmlns:xlink="http://www.w3.org/1999/xlink" width="120.558" height="120.558" viewBox="0 0 120.558 120.558"><defs><style>.a{fill:#f4f6f8;}.b{fill:#1fd18a;}.c{fill:#fff;}.d{filter:url(#c);}.e{filter:url(#a);}</style><filter id="a" x="0" y="0" width="120.558" height="120.558" filterUnits="userSpaceOnUse"><feOffset dx="3" dy="3" input="SourceAlpha"/><feGaussianBlur stdDeviation="3" result="b"/><feFlood flood-opacity="0.161"/><feComposite operator="in" in2="b"/><feComposite in="SourceGraphic"/></filter><filter id="c" x="35.182" y="10.851" width="71.111" height="62.386" filterUnits="userSpaceOnUse"><feOffset dy="3" input="SourceAlpha"/><feGaussianBlur stdDeviation="3" result="d"/><feFlood flood-opacity="0.161"/><feComposite operator="in" in2="d"/><feComposite in="SourceGraphic"/></filter></defs><g transform="matrix(0.999, 0.035, -0.035, 0.999, 9.504, 4.76)"><g class="e" transform="matrix(1, -0.03, 0.03, 1, -9.66, -4.43)"><path class="a" d="M49.579,0A49.579,49.579,0,1,1,0,49.579,49.579,49.579,0,0,1,49.579,0Z" transform="matrix(1, 0.03, -0.03, 1, 9.46, 6)"/></g><path class="b" d="M106.646,194.345c-13.3,0-24.087,9.416-24.087,21.031A19.79,19.79,0,0,0,89.914,230.5c-5.486,4.567-10.836,4.171-10.836,4.171,5.065,3.949,13.237,1.949,18.262.105a27.052,27.052,0,0,0,9.307,1.628c13.3,0,24.087-9.416,24.087-21.031S119.949,194.345,106.646,194.345Z" transform="translate(-63.524 -156.428)"/><path class="b" d="M192.547,194.345a27.4,27.4,0,0,0-6.535.784c2.777,8.937,12.132,15.511,23.247,15.511a27.377,27.377,0,0,0,6.535-.784C213.017,200.919,203.662,194.345,192.547,194.345Z" transform="translate(-149.424 -156.428)"/><g class="d" transform="matrix(1, -0.03, 0.03, 1, -9.66, -4.43)"><path class="b" d="M209.985,56.587c13.3,0,24.087,9.416,24.087,21.031a19.79,19.79,0,0,1-7.354,15.127c5.486,4.567,10.836,4.171,10.836,4.171-5.065,3.949-13.237,1.949-18.262.105a27.051,27.051,0,0,1-9.307,1.628c-13.3,0-24.087-9.416-24.087-21.031S196.682,56.587,209.985,56.587Z" transform="matrix(1, 0.03, -0.03, 1, -138.14, -46.19)"/></g><g transform="translate(30.192 26.222)"><path class="c" d="M239.813,134.883h24.027a.818.818,0,0,1,0,1.636H239.813A.818.818,0,0,1,239.813,134.883Zm-.33,10.633h14.264c.642,0,.642,1.636,0,1.636H239.483C238.841,147.152,238.841,145.516,239.483,145.516Zm.33-5.317h24.027a.818.818,0,0,1,0,1.636H239.813A.818.818,0,0,1,239.813,140.2Z" transform="translate(-222.183 -134.883)"/><path class="c" d="M154.306,288.482h24.027a.818.818,0,0,1,0,1.636H154.306A.818.818,0,0,1,154.306,288.482Zm-.33,10.633h14.264c.642,0,.642,1.636,0,1.636H153.977C153.335,300.751,153.335,299.115,153.977,299.115Zm.33-5.317h24.027a.818.818,0,0,1,0,1.636H154.306A.818.818,0,0,1,154.306,293.8Z" transform="translate(-153.495 -258.27)"/></g></g></svg>