<svg xmlns="http://www.w3.org/2000/svg" width="78.315" height="16.567" viewBox="0 0 78.315 16.567"><defs><style>.a{fill:#173c68;}.b{fill:#00b378;}.c{fill:none;stroke:#173d68;stroke-miterlimit:10;stroke-width:4px;}</style></defs><g transform="translate(-302.7 -270.7)"><g transform="translate(302.7 270.7)"><path class="a" d="M313.734,296.156a71.778,71.778,0,0,1-7.592.461,3.266,3.266,0,0,1-2.49-.953,3.433,3.433,0,0,1-.953-2.49v-5.287a3.7,3.7,0,0,1,.984-2.7,3.648,3.648,0,0,1,2.7-.984h7.346v3.1h-6.086a.815.815,0,0,0-.922.922v4.487a.811.811,0,0,0,.215.584.765.765,0,0,0,.584.215c1.383,0,3.442-.123,6.209-.338Z" transform="translate(-302.7 -280.051)"/><path class="b" d="M348.048,275.31v11.71h-4.026v-8.606H342.3v-3.1Zm-4.026-4.61h4.026v3.227h-4.026Z" transform="translate(-330.129 -270.7)"/><path class="a" d="M378.734,296.156a71.778,71.778,0,0,1-7.592.461,3.266,3.266,0,0,1-2.49-.953,3.433,3.433,0,0,1-.953-2.49v-5.287a3.7,3.7,0,0,1,.984-2.7,3.648,3.648,0,0,1,2.7-.984h7.346v3.1h-6.086a.815.815,0,0,0-.922.922v4.487a.811.811,0,0,0,.215.584.765.765,0,0,0,.584.215c1.383,0,3.442-.123,6.209-.338Z" transform="translate(-347.722 -280.051)"/><path class="a" d="M421.463,292.375a3.7,3.7,0,0,1-.984,2.7,3.648,3.648,0,0,1-2.7.984h-5.287a3.7,3.7,0,0,1-2.7-.984,3.648,3.648,0,0,1-.984-2.7v-5.287a3.7,3.7,0,0,1,.984-2.7,3.648,3.648,0,0,1,2.7-.984h5.287a3.7,3.7,0,0,1,2.7.984,3.648,3.648,0,0,1,.984,2.7Zm-4.026-4.948a.815.815,0,0,0-.922-.922h-2.766a.815.815,0,0,0-.922.922v4.61a.815.815,0,0,0,.922.922h2.766a.815.815,0,0,0,.922-.922Z" transform="translate(-376.189 -279.497)"/></g><g transform="translate(357.564 274.02)"><path class="b" d="M483.444,287.613l.8.307a1.563,1.563,0,0,1-1.629,1.2,1.277,1.277,0,0,1-1.014-.4,1.414,1.414,0,0,1-.4-1.076,2.465,2.465,0,0,1,.523-1.629,1.631,1.631,0,0,1,1.291-.615,1.3,1.3,0,0,1,1.045.4,1.5,1.5,0,0,1,.369,1.045l-.8.061a.942.942,0,0,0-.123-.523.507.507,0,0,0-.492-.215.773.773,0,0,0-.676.4,1.861,1.861,0,0,0-.246.984c0,.523.215.768.645.768a.91.91,0,0,0,.307-.061.413.413,0,0,0,.215-.184,1.763,1.763,0,0,0,.123-.215A.948.948,0,0,1,483.444,287.613Z" transform="translate(-481.2 -284.201)"/><path class="b" d="M494.489,289.027h-.8l.061-.4h0a1.311,1.311,0,0,1-.369.338,1.334,1.334,0,0,1-.645.154,1.035,1.035,0,0,1-.8-.369,1.493,1.493,0,0,1-.338-1.014,2.739,2.739,0,0,1,.523-1.66,1.5,1.5,0,0,1,1.229-.676.858.858,0,0,1,.8.43h.031l.061-.307h.861Zm-.553-1.752.061-.369a.677.677,0,0,0-.092-.553.619.619,0,0,0-.492-.215.807.807,0,0,0-.676.43,1.892,1.892,0,0,0-.277,1.045c0,.43.184.645.522.645a.86.86,0,0,0,.584-.277A1.182,1.182,0,0,0,493.936,287.275Z" transform="translate(-488.403 -284.201)"/><path class="b" d="M502.5,287.659l.8-.154a.754.754,0,0,0,.215.523.71.71,0,0,0,.523.154c.4,0,.584-.123.584-.369,0-.092-.061-.154-.154-.215a5.515,5.515,0,0,0-.676-.307,1.886,1.886,0,0,1-.8-.43.765.765,0,0,1-.215-.584,1.033,1.033,0,0,1,.338-.738,1.388,1.388,0,0,1,1.014-.338,1.451,1.451,0,0,1,.984.307,1.221,1.221,0,0,1,.43.8l-.768.123a.738.738,0,0,0-.215-.369A.827.827,0,0,0,503.7,286a.232.232,0,0,0-.123.215.318.318,0,0,0,.154.215c.123.061.369.154.738.307a1.6,1.6,0,0,1,.738.43.886.886,0,0,1,.184.584,1.147,1.147,0,0,1-.369.83,1.579,1.579,0,0,1-1.045.338,1.633,1.633,0,0,1-1.137-.369A1.4,1.4,0,0,1,502.5,287.659Z" transform="translate(-495.953 -284.063)"/><path class="b" d="M512.2,286.326l.861-4.826h.861l-.277,1.6h0a1.065,1.065,0,0,1,.338-.246,1.053,1.053,0,0,1,.553-.123.971.971,0,0,1,.83.369,1.21,1.21,0,0,1,.154,1.014l-.4,2.244h-.83l.369-2.152a.841.841,0,0,0-.061-.492.479.479,0,0,0-.43-.184.755.755,0,0,0-.461.154.784.784,0,0,0-.277.461l-.4,2.213h-.83Z" transform="translate(-502.672 -281.5)"/><path class="b" d="M527,286.326l.615-3.5h.891l-.615,3.5Zm.707-4.026.154-.8h.861l-.154.8Z" transform="translate(-512.923 -281.5)"/><path class="b" d="M531.6,289.1l.615-3.5h.83l-.061.338h0a1.278,1.278,0,0,1,.984-.43.971.971,0,0,1,.83.369,1.459,1.459,0,0,1,.184,1.076l-.369,2.151h-.861l.369-2.09c.092-.492-.092-.738-.523-.738a.85.85,0,0,0-.492.154.761.761,0,0,0-.246.43l-.4,2.213H531.6Z" transform="translate(-516.109 -284.271)"/></g><g transform="translate(357.564 280.597)"><path class="a" d="M483.444,309.013l.8.307a1.563,1.563,0,0,1-1.629,1.2,1.277,1.277,0,0,1-1.014-.4,1.414,1.414,0,0,1-.4-1.076,2.465,2.465,0,0,1,.523-1.629,1.631,1.631,0,0,1,1.291-.615,1.3,1.3,0,0,1,1.045.4,1.5,1.5,0,0,1,.369,1.045l-.8.061a.942.942,0,0,0-.123-.523.507.507,0,0,0-.492-.215.773.773,0,0,0-.676.4,1.676,1.676,0,0,0-.246.984c0,.522.215.768.645.768a.91.91,0,0,0,.307-.061.413.413,0,0,0,.215-.184,1.763,1.763,0,0,0,.123-.215A1.377,1.377,0,0,1,483.444,309.013Z" transform="translate(-481.2 -305.601)"/><path class="a" d="M494.489,310.427h-.8l.061-.4h0a1.311,1.311,0,0,1-.369.338,1.335,1.335,0,0,1-.645.154,1.035,1.035,0,0,1-.8-.369,1.493,1.493,0,0,1-.338-1.014,2.739,2.739,0,0,1,.523-1.66,1.5,1.5,0,0,1,1.229-.676.858.858,0,0,1,.8.43h.031l.061-.307h.861Zm-.553-1.752.061-.369a.678.678,0,0,0-.092-.553.619.619,0,0,0-.492-.215.807.807,0,0,0-.676.43,1.892,1.892,0,0,0-.277,1.045c0,.43.184.645.522.645a.86.86,0,0,0,.584-.277A1.182,1.182,0,0,0,493.936,308.675Z" transform="translate(-488.403 -305.601)"/><path class="a" d="M502.5,309.059l.8-.154a.754.754,0,0,0,.215.523.71.71,0,0,0,.523.154c.4,0,.584-.123.584-.369,0-.092-.061-.154-.154-.215a5.507,5.507,0,0,0-.676-.307,1.887,1.887,0,0,1-.8-.43.765.765,0,0,1-.215-.584,1.033,1.033,0,0,1,.338-.738,1.388,1.388,0,0,1,1.014-.338,1.451,1.451,0,0,1,.984.307,1.221,1.221,0,0,1,.43.8l-.768.123a.738.738,0,0,0-.215-.369.827.827,0,0,0-.861-.061.232.232,0,0,0-.123.215.318.318,0,0,0,.154.215c.092.061.369.154.738.307a1.6,1.6,0,0,1,.738.43.886.886,0,0,1,.184.584,1.147,1.147,0,0,1-.369.83,1.579,1.579,0,0,1-1.045.338,1.633,1.633,0,0,1-1.137-.369A1.4,1.4,0,0,1,502.5,309.059Z" transform="translate(-495.953 -305.463)"/><path class="a" d="M512.2,307.726l.861-4.826h.861l-.277,1.6h0a1.066,1.066,0,0,1,.338-.246,1.053,1.053,0,0,1,.553-.123.971.971,0,0,1,.83.369,1.21,1.21,0,0,1,.154,1.014l-.4,2.244h-.83l.369-2.152a.841.841,0,0,0-.061-.492.479.479,0,0,0-.43-.184.755.755,0,0,0-.461.154.844.844,0,0,0-.277.461l-.4,2.213h-.83Z" transform="translate(-502.672 -302.9)"/><path class="a" d="M528.706,310.588a1.483,1.483,0,0,1-1.076-.43,1.6,1.6,0,0,1-.43-1.168,2.217,2.217,0,0,1,.523-1.475,1.692,1.692,0,0,1,1.322-.615,1.483,1.483,0,0,1,1.076.43,1.588,1.588,0,0,1,.4,1.168,2.217,2.217,0,0,1-.522,1.475A1.547,1.547,0,0,1,528.706,310.588Zm.031-.8a.808.808,0,0,0,.676-.369,1.559,1.559,0,0,0,.277-.984.832.832,0,0,0-.184-.584.612.612,0,0,0-.492-.215.809.809,0,0,0-.676.369,1.621,1.621,0,0,0-.277.984.832.832,0,0,0,.184.584A.612.612,0,0,0,528.737,309.789Z" transform="translate(-513.061 -305.671)"/><path class="a" d="M538.319,309.274l.4-2.244h.891l-.369,2.152c-.061.43.061.615.43.615.461,0,.738-.184.8-.584l.369-2.213h.891l-.615,3.5h-.861l.062-.338h0a1.23,1.23,0,0,1-.369.307,1.17,1.17,0,0,1-.584.123C538.5,310.658,538.165,310.2,538.319,309.274Z" transform="translate(-520.738 -305.74)"/><path class="a" d="M550.015,307.435l.277-1.537H549.8l.123-.738h.523l.154-.861h.83l-.154.861h.891l-.123.738h-.861l-.246,1.445a.692.692,0,0,0-.031.215.239.239,0,0,0,.092.215.661.661,0,0,0,.307.061h.277l-.154.83h-.369a1.509,1.509,0,0,1-.83-.184.763.763,0,0,1-.246-.615A2.514,2.514,0,0,1,550.015,307.435Z" transform="translate(-528.715 -303.87)"/></g><line class="c" y2="13.309" transform="translate(352.892 273.927)"/></g></svg>