<svg xmlns="http://www.w3.org/2000/svg" width="70" height="69.648" viewBox="0 0 70 69.648"><g transform="translate(0 -0.261)"><path d="M64.607,76.1a1.743,1.743,0,0,0-1.743,1.743V93.319a5.235,5.235,0,0,1-5.23,5.23H8.717a5.235,5.235,0,0,1-5.23-5.23V47.889a5.236,5.236,0,0,1,5.23-5.23H24.2a1.743,1.743,0,1,0,0-3.487H8.717A8.727,8.727,0,0,0,0,47.889V93.32a8.727,8.727,0,0,0,8.717,8.717H57.634a8.727,8.727,0,0,0,8.717-8.717V77.84A1.743,1.743,0,0,0,64.607,76.1Zm0,0" transform="translate(0 -32.128)"/><path d="M154.989,2.559a7.845,7.845,0,0,0-11.095,0l-31.1,31.1a1.743,1.743,0,0,0-.447.767l-4.09,14.766a1.743,1.743,0,0,0,2.145,2.146l14.766-4.091a1.743,1.743,0,0,0,.767-.447l31.1-31.1a7.854,7.854,0,0,0,0-11.095Zm-38.4,32.236L142.045,9.339l8.209,8.209L124.8,43Zm-1.64,3.291,6.559,6.559-9.072,2.514Zm39.619-24.851-1.849,1.849-8.21-8.21,1.85-1.849a4.358,4.358,0,0,1,6.163,0l2.046,2.046A4.365,4.365,0,0,1,154.569,13.234Zm0,0" transform="translate(-89.329)"/></g></svg>