<svg xmlns="http://www.w3.org/2000/svg" width="136" height="136" viewBox="0 0 136 136"><path d="M111.877,102.255,90.168,96.826l-1.847-7.389A39.07,39.07,0,0,0,99.286,67.683a8.516,8.516,0,0,0,6.143-7.129l1.417-11.333a8.483,8.483,0,0,0-5.423-8.987l.521-10.67,2.119-2.125c3.19-3.394,5.837-9.214.306-17.657C100.119,3.292,92.9,0,82.9,0,78.959,0,69.881,0,61.427,5.678,37.287,6.182,34,17.4,34,28.333c0,2.544.618,8.273,1.026,11.73a8.51,8.51,0,0,0-5.871,9.163L30.572,60.56a8.527,8.527,0,0,0,6.817,7.293A39.316,39.316,0,0,0,47.81,88.944l-1.972,7.894-21.709,5.429A31.782,31.782,0,0,0,0,133.167,2.835,2.835,0,0,0,2.833,136H133.167A2.844,2.844,0,0,0,136,133.155,31.8,31.8,0,0,0,111.877,102.255Z"/></svg>